<svg xmlns="http://www.w3.org/2000/svg" viewBox="0 0 400 260">
  <defs><linearGradient id="g" x1="0" y1="0" x2="0" y2="1"><stop offset="0%" stop-color="#d0f0c0"/><stop offset="100%" stop-color="#2e7d32"/></linearGradient></defs>
  <rect width="400" height="260" fill="url(#g)"/>
  <rect x="30" y="20" width="340" height="150" fill="#f4f6f9"/>
  <g fill="#a5d6a7">
    <rect x="45" y="35" width="24" height="30"/><rect x="80" y="35" width="24" height="30"/><rect x="115" y="35" width="24" height="30"/><rect x="150" y="35" width="24" height="30"/><rect x="185" y="35" width="24" height="30"/><rect x="220" y="35" width="24" height="30"/><rect x="255" y="35" width="24" height="30"/><rect x="290" y="35" width="24" height="30"/><rect x="325" y="35" width="24" height="30"/>
    <rect x="45" y="80" width="24" height="30"/><rect x="80" y="80" width="24" height="30"/><rect x="115" y="80" width="24" height="30"/><rect x="150" y="80" width="24" height="30"/><rect x="185" y="80" width="24" height="30"/><rect x="220" y="80" width="24" height="30"/><rect x="255" y="80" width="24" height="30"/><rect x="290" y="80" width="24" height="30"/><rect x="325" y="80" width="24" height="30"/>
  </g>
  <rect x="60" y="170" width="280" height="60" rx="8" fill="#29b6f6"/>
  <rect x="60" y="170" width="280" height="10" rx="4" fill="#81d4fa"/>
  <rect x="0" y="230" width="400" height="30" fill="#795548"/>
</svg>
