<svg xmlns="http://www.w3.org/2000/svg" viewBox="0 0 400 260">
  <defs><linearGradient id="g" x1="0" y1="0" x2="1" y2="1"><stop offset="0%" stop-color="#7ec8e3"/><stop offset="100%" stop-color="#2196f3"/></linearGradient></defs>
  <rect width="400" height="260" fill="url(#g)"/>
  <rect x="0" y="190" width="400" height="70" fill="#0b3d59"/>
  <path d="M0 190 Q100 160 200 190 T400 190 V260 H0 Z" fill="#1565a3"/>
  <rect x="60" y="40" width="60" height="150" fill="#ffffff"/>
  <rect x="140" y="10" width="70" height="180" fill="#f2f6fb"/>
  <path d="M140 10 L175 -15 L210 10 Z" fill="#c0392b" transform="translate(0,15)"/>
  <rect x="230" y="60" width="50" height="130" fill="#ffffff"/>
  <g fill="#8fb8d6"><rect x="72" y="55" width="10" height="10"/><rect x="95" y="55" width="10" height="10"/><rect x="72" y="80" width="10" height="10"/><rect x="95" y="105" width="10" height="10"/>
    <rect x="155" y="30" width="10" height="10"/><rect x="180" y="30" width="10" height="10"/><rect x="155" y="60" width="10" height="10"/><rect x="180" y="90" width="10" height="10"/>
    <rect x="242" y="75" width="10" height="10"/><rect x="262" y="100" width="10" height="10"/></g>
</svg>
