<svg xmlns="http://www.w3.org/2000/svg" viewBox="0 0 400 260">
  <defs><linearGradient id="g" x1="0" y1="0" x2="1" y2="1"><stop offset="0%" stop-color="#a8e6cf"/><stop offset="100%" stop-color="#00838f"/></linearGradient></defs>
  <rect width="400" height="260" fill="url(#g)"/>
  <rect x="0" y="195" width="400" height="65" fill="#004d54"/>
  <path d="M0 195 Q100 175 200 195 T400 195 V260 H0 Z" fill="#00636b"/>
  <rect x="90" y="70" width="220" height="120" fill="#ffffff"/>
  <rect x="90" y="70" width="220" height="14" fill="#00838f"/>
  <g fill="#b3e0e5">
    <rect x="105" y="95" width="16" height="18"/><rect x="135" y="95" width="16" height="18"/><rect x="165" y="95" width="16" height="18"/><rect x="195" y="95" width="16" height="18"/><rect x="225" y="95" width="16" height="18"/><rect x="255" y="95" width="16" height="18"/><rect x="285" y="95" width="16" height="18"/>
    <rect x="105" y="130" width="16" height="18"/><rect x="135" y="130" width="16" height="18"/><rect x="165" y="130" width="16" height="18"/><rect x="195" y="130" width="16" height="18"/><rect x="225" y="130" width="16" height="18"/><rect x="255" y="130" width="16" height="18"/><rect x="285" y="130" width="16" height="18"/>
    <rect x="105" y="160" width="16" height="18"/><rect x="135" y="160" width="16" height="18"/><rect x="165" y="160" width="16" height="18"/><rect x="195" y="160" width="16" height="18"/><rect x="225" y="160" width="16" height="18"/><rect x="255" y="160" width="16" height="18"/><rect x="285" y="160" width="16" height="18"/>
  </g>
</svg>
